<svg width="500" height="116.50485436893204" viewBox="0 0 309 72" fill="none" xmlns="http://www.w3.org/2000/svg" class=""><path d="M36 71C55.33 71 71 55.33 71 36C71 16.67 55.33 1 36 1C16.67 1 1 16.67 1 36C1 55.33 16.67 71 36 71Z" stroke="#31396D" stroke-width="2" stroke-dasharray="4 4" fill="none"/><path d="M36 62.7645C50.7818 62.7645 62.7647 50.7816 62.7647 35.9998C62.7647 21.2181 50.7818 9.23511 36 9.23511C21.2183 9.23511 9.23532 21.2181 9.23532 35.9998C9.23532 50.7816 21.2183 62.7645 36 62.7645Z" stroke="#4D53B9" stroke-width="2" fill="none"/><path d="M36 54.5295C46.2335 54.5295 54.5294 46.2336 54.5294 36.0001C54.5294 25.7666 46.2335 17.4707 36 17.4707C25.7665 17.4707 17.4706 25.7666 17.4706 36.0001C17.4706 46.2336 25.7665 54.5295 36 54.5295Z" stroke="#4D53B9" stroke-width="2" fill="none"/><path d="M5.5 36L27.5 36" stroke="#FFD11B" stroke-width="2" stroke-linecap="round"/><path d="M43.5 36L65.5 36" stroke="#FFD11B" stroke-width="2" stroke-linecap="round"/><path d="M35.5 6V28" stroke="#FFD11B" stroke-width="2" stroke-linecap="round"/><path d="M35.5 44V66" stroke="#FFD11B" stroke-width="2" stroke-linecap="round"/><path d="M35.7941 39.9118C37.8408 39.9118 39.5 38.2526 39.5 36.2059C39.5 34.1592 37.8408 32.5 35.7941 32.5C33.7474 32.5 32.0882 34.1592 32.0882 36.2059C32.0882 38.2526 33.7474 39.9118 35.7941 39.9118Z" fill="#2C514D"/><path d="M35.7941 37.8531C36.7038 37.8531 37.4412 37.1157 37.4412 36.206C37.4412 35.2964 36.7038 34.559 35.7941 34.559C34.8845 34.559 34.1471 35.2964 34.1471 36.206C34.1471 37.1157 34.8845 37.8531 35.7941 37.8531Z" fill="#FFD11B"/><path d="M97.0057 22.8182L103.334 42.7102H103.577L109.918 22.8182H116.054L107.028 49H99.8949L90.8565 22.8182H97.0057ZM119.103 49V29.3636H124.549V49H119.103ZM121.839 26.8324C121.029 26.8324 120.335 26.5639 119.755 26.027C119.184 25.4815 118.898 24.8295 118.898 24.071C118.898 23.321 119.184 22.6776 119.755 22.1406C120.335 21.5952 121.029 21.3224 121.839 21.3224C122.648 21.3224 123.339 21.5952 123.91 22.1406C124.489 22.6776 124.779 23.321 124.779 24.071C124.779 24.8295 124.489 25.4815 123.91 26.027C123.339 26.5639 122.648 26.8324 121.839 26.8324ZM129.014 49V22.8182H134.46V32.6619H134.626C134.865 32.1335 135.21 31.5966 135.662 31.0511C136.122 30.4972 136.718 30.0369 137.451 29.6705C138.193 29.2955 139.113 29.108 140.213 29.108C141.645 29.108 142.966 29.483 144.176 30.233C145.386 30.9744 146.353 32.0952 147.078 33.5952C147.802 35.0866 148.164 36.9574 148.164 39.2074C148.164 41.3977 147.811 43.2472 147.103 44.7557C146.404 46.2557 145.45 47.3935 144.24 48.169C143.038 48.9361 141.691 49.3196 140.2 49.3196C139.143 49.3196 138.244 49.1449 137.502 48.7955C136.77 48.446 136.169 48.0071 135.7 47.4787C135.231 46.9418 134.873 46.4006 134.626 45.8551H134.383V49H129.014ZM134.345 39.1818C134.345 40.3494 134.507 41.3679 134.831 42.2372C135.154 43.1065 135.623 43.7841 136.237 44.2699C136.851 44.7472 137.596 44.9858 138.474 44.9858C139.36 44.9858 140.11 44.7429 140.724 44.2571C141.338 43.7628 141.802 43.081 142.118 42.2116C142.441 41.3338 142.603 40.3239 142.603 39.1818C142.603 38.0483 142.446 37.0511 142.13 36.1903C141.815 35.3295 141.351 34.6562 140.737 34.1705C140.123 33.6847 139.369 33.4418 138.474 33.4418C137.588 33.4418 136.838 33.6761 136.224 34.1449C135.619 34.6136 135.154 35.2784 134.831 36.1392C134.507 37 134.345 38.0142 134.345 39.1818ZM160.747 49.3835C158.727 49.3835 156.989 48.9744 155.531 48.1562C154.082 47.3295 152.966 46.1619 152.182 44.6534C151.398 43.1364 151.006 41.3423 151.006 39.2713C151.006 37.2514 151.398 35.4787 152.182 33.9531C152.966 32.4276 154.07 31.2386 155.493 30.3864C156.925 29.5341 158.604 29.108 160.53 29.108C161.825 29.108 163.031 29.3168 164.148 29.7344C165.273 30.1435 166.253 30.7614 167.088 31.5881C167.932 32.4148 168.588 33.4545 169.057 34.7074C169.526 35.9517 169.76 37.4091 169.76 39.0795V40.5753H153.179V37.2003H164.634C164.634 36.4162 164.463 35.7216 164.122 35.1165C163.781 34.5114 163.308 34.0384 162.703 33.6974C162.107 33.348 161.412 33.1733 160.619 33.1733C159.793 33.1733 159.06 33.3651 158.42 33.7486C157.79 34.1236 157.295 34.6307 156.938 35.2699C156.58 35.9006 156.396 36.6037 156.388 37.3793V40.5881C156.388 41.5597 156.567 42.3991 156.925 43.1065C157.291 43.8139 157.807 44.3594 158.472 44.7429C159.136 45.1264 159.925 45.3182 160.837 45.3182C161.442 45.3182 161.996 45.233 162.499 45.0625C163.001 44.892 163.432 44.6364 163.79 44.2955C164.148 43.9545 164.42 43.5369 164.608 43.0426L169.645 43.375C169.389 44.5852 168.865 45.642 168.072 46.5455C167.288 47.4403 166.274 48.1392 165.03 48.642C163.794 49.1364 162.366 49.3835 160.747 49.3835ZM173.314 49V29.3636H178.504V32.8281H178.734C179.143 31.6776 179.825 30.7699 180.78 30.1051C181.734 29.4403 182.876 29.108 184.206 29.108C185.553 29.108 186.699 29.4446 187.645 30.1179C188.591 30.7827 189.222 31.6861 189.537 32.8281H189.741C190.142 31.7031 190.866 30.804 191.915 30.1307C192.972 29.4489 194.22 29.108 195.661 29.108C197.493 29.108 198.98 29.6918 200.122 30.8594C201.273 32.0185 201.848 33.6634 201.848 35.794V49H196.415V36.8679C196.415 35.777 196.125 34.9588 195.545 34.4134C194.966 33.8679 194.241 33.5952 193.372 33.5952C192.384 33.5952 191.612 33.9105 191.058 34.5412C190.504 35.1634 190.227 35.9858 190.227 37.0085V49H184.947V36.7528C184.947 35.7898 184.67 35.0227 184.116 34.4517C183.571 33.8807 182.851 33.5952 181.956 33.5952C181.351 33.5952 180.805 33.7486 180.32 34.0554C179.842 34.3537 179.463 34.7756 179.182 35.321C178.901 35.858 178.76 36.4886 178.76 37.2131V49H173.314ZM215.022 49.3835C213.036 49.3835 211.319 48.9616 209.87 48.1179C208.43 47.2656 207.317 46.081 206.533 44.5639C205.749 43.0384 205.357 41.2699 205.357 39.2585C205.357 37.2301 205.749 35.4574 206.533 33.9403C207.317 32.4148 208.43 31.2301 209.87 30.3864C211.319 29.5341 213.036 29.108 215.022 29.108C217.008 29.108 218.721 29.5341 220.161 30.3864C221.61 31.2301 222.727 32.4148 223.511 33.9403C224.295 35.4574 224.687 37.2301 224.687 39.2585C224.687 41.2699 224.295 43.0384 223.511 44.5639C222.727 46.081 221.61 47.2656 220.161 48.1179C218.721 48.9616 217.008 49.3835 215.022 49.3835ZM215.048 45.1648C215.951 45.1648 216.705 44.9091 217.31 44.3977C217.915 43.8778 218.371 43.1705 218.678 42.2756C218.994 41.3807 219.151 40.3622 219.151 39.2202C219.151 38.0781 218.994 37.0597 218.678 36.1648C218.371 35.2699 217.915 34.5625 217.31 34.0426C216.705 33.5227 215.951 33.2628 215.048 33.2628C214.136 33.2628 213.369 33.5227 212.746 34.0426C212.133 34.5625 211.668 35.2699 211.353 36.1648C211.046 37.0597 210.893 38.0781 210.893 39.2202C210.893 40.3622 211.046 41.3807 211.353 42.2756C211.668 43.1705 212.133 43.8778 212.746 44.3977C213.369 44.9091 214.136 45.1648 215.048 45.1648ZM233.674 37.6477V49H228.228V29.3636H233.418V32.8281H233.648C234.083 31.6861 234.812 30.7827 235.835 30.1179C236.857 29.4446 238.097 29.108 239.555 29.108C240.918 29.108 242.107 29.4062 243.121 30.0028C244.136 30.5994 244.924 31.4517 245.487 32.5597C246.049 33.6591 246.33 34.9716 246.33 36.4972V49H240.884V37.4688C240.893 36.267 240.586 35.3295 239.964 34.6562C239.342 33.9744 238.485 33.6335 237.394 33.6335C236.661 33.6335 236.014 33.7912 235.451 34.1065C234.897 34.4219 234.462 34.8821 234.147 35.4872C233.84 36.0838 233.683 36.804 233.674 37.6477ZM250.623 49V29.3636H256.069V49H250.623ZM253.358 26.8324C252.549 26.8324 251.854 26.5639 251.275 26.027C250.703 25.4815 250.418 24.8295 250.418 24.071C250.418 23.321 250.703 22.6776 251.275 22.1406C251.854 21.5952 252.549 21.3224 253.358 21.3224C254.168 21.3224 254.858 21.5952 255.429 22.1406C256.009 22.6776 256.299 23.321 256.299 24.071C256.299 24.8295 256.009 25.4815 255.429 26.027C254.858 26.5639 254.168 26.8324 253.358 26.8324ZM270.876 29.3636V33.4545H259.05V29.3636H270.876ZM261.735 24.6591H267.181V42.9659C267.181 43.4687 267.258 43.8608 267.411 44.142C267.565 44.4148 267.778 44.6065 268.05 44.7173C268.332 44.8281 268.656 44.8835 269.022 44.8835C269.278 44.8835 269.533 44.8622 269.789 44.8196C270.045 44.7685 270.241 44.7301 270.377 44.7045L271.234 48.7571C270.961 48.8423 270.577 48.9403 270.083 49.0511C269.589 49.1705 268.988 49.2429 268.281 49.2685C266.968 49.3196 265.817 49.1449 264.829 48.7443C263.849 48.3437 263.086 47.7216 262.54 46.8778C261.995 46.0341 261.727 44.9687 261.735 43.6818V24.6591ZM283.085 49.3835C281.099 49.3835 279.381 48.9616 277.933 48.1179C276.492 47.2656 275.38 46.081 274.596 44.5639C273.812 43.0384 273.42 41.2699 273.42 39.2585C273.42 37.2301 273.812 35.4574 274.596 33.9403C275.38 32.4148 276.492 31.2301 277.933 30.3864C279.381 29.5341 281.099 29.108 283.085 29.108C285.07 29.108 286.783 29.5341 288.224 30.3864C289.673 31.2301 290.789 32.4148 291.573 33.9403C292.357 35.4574 292.749 37.2301 292.749 39.2585C292.749 41.2699 292.357 43.0384 291.573 44.5639C290.789 46.081 289.673 47.2656 288.224 48.1179C286.783 48.9616 285.07 49.3835 283.085 49.3835ZM283.11 45.1648C284.014 45.1648 284.768 44.9091 285.373 44.3977C285.978 43.8778 286.434 43.1705 286.741 42.2756C287.056 41.3807 287.214 40.3622 287.214 39.2202C287.214 38.0781 287.056 37.0597 286.741 36.1648C286.434 35.2699 285.978 34.5625 285.373 34.0426C284.768 33.5227 284.014 33.2628 283.11 33.2628C282.198 33.2628 281.431 33.5227 280.809 34.0426C280.195 34.5625 279.731 35.2699 279.415 36.1648C279.109 37.0597 278.955 38.0781 278.955 39.2202C278.955 40.3622 279.109 41.3807 279.415 42.2756C279.731 43.1705 280.195 43.8778 280.809 44.3977C281.431 44.9091 282.198 45.1648 283.11 45.1648ZM296.29 49V29.3636H301.57V32.7898H301.775C302.133 31.571 302.734 30.6506 303.577 30.0284C304.421 29.3977 305.393 29.0824 306.492 29.0824C306.765 29.0824 307.059 29.0994 307.374 29.1335C307.69 29.1676 307.967 29.2145 308.205 29.2741V34.1065C307.95 34.0298 307.596 33.9616 307.144 33.902C306.692 33.8423 306.279 33.8125 305.904 33.8125C305.103 33.8125 304.387 33.9872 303.756 34.3366C303.134 34.6776 302.64 35.1548 302.273 35.7685C301.915 36.3821 301.737 37.0895 301.737 37.8906V49H296.29Z" fill="white"/></svg>